HIERARCHY
ROOT SpineBase
{
  OFFSET 0.000000 0.000000 0.000000
  CHANNELS 6 Xposition Yposition Zposition Zrotation Xrotation Yrotation
  JOINT SpineMid
  {
    OFFSET 0.000000 33.312768 0.000000
    CHANNELS 3 Zrotation Xrotation Yrotation
    JOINT SpineShoulder
    {
      OFFSET 0.105799 24.782837 -0.888889
      CHANNELS 3 Zrotation Xrotation Yrotation
      JOINT Neck
      {
        OFFSET 0.095941 8.208073 -0.648769
        CHANNELS 3 Zrotation Xrotation Yrotation
        JOINT Head
        {
          OFFSET -1.484568 11.214464 4.070587
          CHANNELS 3 Zrotation Xrotation Yrotation
          End Site
          {
            OFFSET 0 0 0
          }
        }
      }
      JOINT ShoulderLeft
      {
        OFFSET -16.097504 -7.054365 -3.563986
        CHANNELS 3 Zrotation Xrotation Yrotation
        JOINT ElbowLeft
        {
          OFFSET -5.993387 -29.158072 5.220947
          CHANNELS 3 Zrotation Xrotation Yrotation
          JOINT WristLeft
          {
            OFFSET -1.168547 -22.866779 7.338016
            CHANNELS 3 Zrotation Xrotation Yrotation
            JOINT HandLeft
            {
              OFFSET -1.802074 -8.774005 1.889556
              CHANNELS 3 Zrotation Xrotation Yrotation
              JOINT HandTipLeft
              {
                OFFSET 1.360471 -5.095113 -1.708224
                CHANNELS 3 Zrotation Xrotation Yrotation
                End Site
                {
                  OFFSET 0 0 0
                }
              }
              JOINT ThumbLeft
              {
                OFFSET -2.413469 0.614763 -2.611264
                CHANNELS 3 Zrotation Xrotation Yrotation
                End Site
                {
                  OFFSET 0 0 0
                }
              }
            }
          }
        }
      }
      JOINT ShoulderRight
      {
        OFFSET 15.147963 -6.137854 -7.017348
        CHANNELS 3 Zrotation Xrotation Yrotation
        JOINT ElbowRight
        {
          OFFSET 8.849873 -29.510097 1.682841
          CHANNELS 3 Zrotation Xrotation Yrotation
          JOINT WristRight
          {
            OFFSET 7.555483 -22.369754 -0.314730
            CHANNELS 3 Zrotation Xrotation Yrotation
            JOINT HandRight
            {
              OFFSET 0.996453 -6.671199 -0.441648
              CHANNELS 3 Zrotation Xrotation Yrotation
              JOINT HandTipRight
              {
                OFFSET -0.626128 -7.433094 -0.973206
                CHANNELS 3 Zrotation Xrotation Yrotation
                End Site
                {
                  OFFSET 0 0 0
                }
              }
              JOINT ThumbRight
              {
                OFFSET 3.344145 0.543125 -5.342636
                CHANNELS 3 Zrotation Xrotation Yrotation
                End Site
                {
                  OFFSET 0 0 0
                }
              }
            }
          }
        }
      }
    }
  }
  JOINT HipLeft
  {
    OFFSET -5.689474 1.387011 -2.689686
    CHANNELS 3 Zrotation Xrotation Yrotation
    JOINT KneeLeft
    {
      OFFSET -1.322451 -44.923968 -4.502755
      CHANNELS 3 Zrotation Xrotation Yrotation
      JOINT AnkleLeft
      {
        OFFSET 1.214100 -34.334639 -1.869048
        CHANNELS 3 Zrotation Xrotation Yrotation
        JOINT FootLeft
        {
          OFFSET 0.010321 -5.607806 -9.083140
          CHANNELS 3 Zrotation Xrotation Yrotation
          End Site
          {
            OFFSET 0 0 0
          }
        }
      }
    }
  }
  JOINT HipRight
  {
    OFFSET 6.935611 1.814390 -4.074515
    CHANNELS 3 Zrotation Xrotation Yrotation
    JOINT KneeRight
    {
      OFFSET 4.100324 -44.848331 -4.365457
      CHANNELS 3 Zrotation Xrotation Yrotation
      JOINT AnkleRight
      {
        OFFSET 2.386437 -35.334552 -0.275719
        CHANNELS 3 Zrotation Xrotation Yrotation
        JOINT FootRight
        {
          OFFSET 5.738059 -4.664633 -5.758651
          CHANNELS 3 Zrotation Xrotation Yrotation
          End Site
          {
            OFFSET 0 0 0
          }
        }
      }
    }
  }
}
MOTION
Frames: 14
Frame Time: 0.033333
-41.417608 84.554827 225.089258 0.669447 0.090024 8.857273 -0.675325 0.014131 -8.857716 -0.000000 0.000000 0.000000 -0.000000 0.000000 0.000000 0.000000 0.000000 0.000000 1.133983 -1.397106 0.503989 -1.763527 2.460367 -0.717516 0.091430 -2.789482 0.483695 -0.614443 1.313214 0.074453 0.000000 0.000000 0.000000 0.000000 0.000000 0.000000 -2.373239 -4.953418 -1.730794 -5.129230 -10.283031 -3.964337 6.739051 4.360136 2.545587 4.365083 2.851249 1.357986 0.000000 0.000000 0.000000 0.000000 0.000000 0.000000 -1.300274 0.645978 -8.798055 -0.195192 -0.578062 -0.013805 7.553583 -4.812378 -11.299036 0.000000 0.000000 0.000000 -1.735528 -0.368814 -8.814232 0.989048 0.540812 -0.051433 -6.798284 6.991175 17.256545 0.000000 0.000000 0.000000
-41.379970 84.554394 225.059132 0.688155 0.148932 8.739708 -0.702794 -0.042632 -8.740863 -0.000000 0.000000 0.000000 -0.000000 0.000000 0.000000 0.000000 0.000000 0.000000 1.174952 -1.369021 0.505822 -2.144959 2.476997 -0.819163 1.228973 -3.010884 0.833973 -2.510163 0.335678 -0.050289 0.000000 0.000000 0.000000 0.000000 0.000000 0.000000 -2.115657 -4.990826 -1.715643 -4.784748 -9.271498 -3.525117 5.693466 2.893962 2.396021 4.810516 2.938388 1.359230 0.000000 0.000000 0.000000 0.000000 0.000000 0.000000 -1.353160 0.548814 -8.678889 -0.230200 -0.570690 -0.015485 8.302410 -4.470780 -12.439487 0.000000 0.000000 0.000000 -1.806328 -0.469044 -8.699738 1.026394 0.588333 -0.051323 -10.535709 8.162250 24.112649 0.000000 0.000000 0.000000
-41.323566 84.555494 225.015557 0.720546 0.219942 8.688994 -0.745504 -0.108549 -8.691084 -0.000000 0.000000 0.000000 -0.442359 -0.725269 0.061929 0.000000 0.000000 0.000000 1.209089 -1.322214 0.502295 -2.358377 2.176413 -0.856725 1.732039 -1.746214 0.747369 -3.405282 -0.585369 0.258541 0.000000 0.000000 0.000000 0.000000 0.000000 0.000000 -1.909866 -4.888546 -1.661531 -4.669923 -8.835074 -3.339847 3.812521 0.903552 2.387390 6.558665 7.260938 0.767427 0.000000 0.000000 0.000000 0.000000 0.000000 0.000000 -1.454981 0.434434 -8.623230 -0.206584 -0.524860 -0.020650 9.466404 -5.016928 -14.424943 0.000000 0.000000 0.000000 -1.914844 -0.599438 -8.653478 1.082244 0.661111 -0.051074 -11.409194 7.320752 24.593734 0.000000 0.000000 0.000000
-41.264342 84.558195 224.969605 0.744185 0.305210 8.540999 -0.781264 -0.191277 -8.544285 -0.000000 0.000000 0.000000 -0.369578 -0.948518 0.005541 0.000000 0.000000 0.000000 1.249660 -1.271579 0.499142 -2.272954 1.542145 -0.791289 1.501093 0.886105 0.214109 -2.956018 -0.847462 0.998423 0.000000 0.000000 0.000000 0.000000 0.000000 0.000000 -1.822041 -4.742650 -1.606233 -4.813379 -8.889816 -3.365564 1.346589 -2.167844 2.309025 10.419477 10.684303 -0.109184 0.000000 0.000000 0.000000 0.000000 0.000000 0.000000 -1.559341 0.287693 -8.469954 -0.147814 -0.427148 -0.026480 10.193949 -6.082223 -15.807563 0.000000 0.000000 0.000000 -2.015842 -0.729660 -8.508546 1.141422 0.714950 -0.052783 -9.869943 1.569728 15.585263 0.000000 0.000000 0.000000
-41.210382 84.565835 224.975961 0.758018 0.328732 8.419358 -0.797986 -0.214176 -8.423024 -0.000000 0.000000 0.000000 -0.287455 -1.101616 -0.044430 0.000000 0.000000 0.000000 1.300916 -1.224762 0.498816 -2.040941 0.811465 -0.674934 0.771810 3.752667 -0.464272 -1.698554 -2.980404 1.249431 0.000000 0.000000 0.000000 0.000000 0.000000 0.000000 -1.869900 -4.686371 -1.593335 -5.106605 -9.213094 -3.508473 -0.393571 -4.899848 2.124309 14.620187 15.821229 -1.696602 0.000000 0.000000 0.000000 0.000000 0.000000 0.000000 -1.619888 0.271223 -8.344629 -0.097422 -0.356428 -0.027809 10.992100 -10.942461 -18.043538 0.000000 0.000000 0.000000 -2.079202 -0.732424 -8.381595 1.192077 0.699282 -0.059288 -12.116412 -2.017440 14.453836 0.000000 0.000000 0.000000
-41.153642 84.574247 225.020802 0.776916 0.303544 8.327594 -0.812691 -0.187795 -8.330984 -0.000000 0.000000 0.000000 -0.215842 -1.203934 -0.083645 0.000000 0.000000 0.000000 1.306300 -1.179270 0.490004 -1.296447 1.190094 -0.463094 0.385146 1.799018 -0.293825 -2.959214 -2.232747 0.950220 0.000000 0.000000 0.000000 0.000000 0.000000 0.000000 -2.016513 -4.743546 -1.626539 -5.470778 -9.578264 -3.674948 -2.346699 -7.469766 1.947620 15.167844 21.126735 -1.753776 0.000000 0.000000 0.000000 0.000000 0.000000 0.000000 -1.674150 0.357132 -8.248608 -0.049984 -0.332516 -0.027830 11.272931 -12.128155 -18.757038 0.000000 0.000000 0.000000 -2.138732 -0.638037 -8.277389 0.454675 0.226439 -0.085681 -10.776776 0.303607 16.238176 0.000000 0.000000 0.000000
-41.094385 84.581042 225.086487 0.797063 0.252854 8.292483 -0.825199 -0.135232 -8.295216 -0.000000 0.000000 0.000000 -0.149804 -1.326671 -0.123532 0.000000 0.000000 0.000000 1.313374 -1.145376 0.484016 -1.303917 1.156130 -0.457731 1.373395 0.713906 0.141137 -4.001687 -2.464192 0.181400 0.000000 0.000000 0.000000 0.000000 0.000000 0.000000 -2.230405 -4.872556 -1.689886 -6.002929 -10.190551 -3.957447 -3.370952 -9.509354 1.759926 15.754233 23.096131 -1.525364 0.000000 0.000000 0.000000 0.000000 0.000000 0.000000 -1.718757 0.506344 -8.209370 -0.013530 -0.384645 -0.028152 11.645187 -13.473276 -19.693086 0.000000 0.000000 0.000000 -2.195261 -0.498956 -8.226812 0.382662 0.049937 -0.104530 -9.331053 -2.179607 10.729247 0.000000 0.000000 0.000000
-41.033089 84.590031 225.165728 0.820206 0.190049 8.327327 -0.839083 -0.069240 -8.329194 -0.000000 0.000000 0.000000 -0.081162 -1.466128 -0.166464 0.000000 0.000000 0.000000 1.338463 -1.097028 0.478311 -1.329508 1.107865 -0.452642 1.313617 -1.980191 0.711380 -4.299402 0.737305 0.072224 0.000000 0.000000 0.000000 0.000000 0.000000 0.000000 -2.225814 -5.469011 -1.880298 -7.050677 -10.435972 -4.090433 -3.681229 -11.480267 1.456270 14.547715 24.413662 -0.323594 0.000000 0.000000 0.000000 0.000000 0.000000 0.000000 -1.769945 0.690821 -8.239031 0.021853 -0.455607 -0.028371 9.313275 -1.550336 -13.614505 0.000000 0.000000 0.000000 -2.250622 -0.340966 -8.245276 0.447713 -0.091292 -0.122551 -8.626084 -2.266061 9.445157 0.000000 0.000000 0.000000
-40.963702 84.602966 225.271077 0.853248 0.095424 8.180505 -0.858143 0.026964 -8.181013 -0.000000 0.000000 0.000000 -0.035674 -1.572237 -0.196674 0.000000 0.000000 0.000000 1.328602 -1.019830 0.459721 -1.355233 2.067773 -0.501933 1.753691 -5.032494 1.340401 -5.564890 1.367673 -0.354265 0.000000 0.000000 0.000000 0.000000 0.000000 0.000000 -2.529212 -5.525744 -1.932039 -7.436658 -11.256131 -4.478368 -4.263302 -13.130215 1.270092 18.300738 27.921271 -2.214477 0.000000 0.000000 0.000000 0.000000 0.000000 0.000000 -1.832363 0.916264 -8.085575 0.039463 -0.565711 -0.028925 7.201838 3.808871 -9.651178 0.000000 0.000000 0.000000 -2.312150 -0.095631 -8.073345 0.540268 -0.267442 -0.145443 -5.573510 1.836357 10.215246 0.000000 0.000000 0.000000
-40.894128 84.617215 225.383814 0.899600 -0.009194 7.880939 -0.889845 0.132450 -7.879839 -0.000000 0.000000 0.000000 -0.037064 -1.722131 -0.216285 0.000000 0.000000 0.000000 1.363070 -0.916886 0.443901 -1.361283 1.985526 -0.480308 2.303514 -5.700791 1.632395 -6.004462 2.239296 -0.518855 0.000000 0.000000 0.000000 0.000000 0.000000 0.000000 -3.147209 -5.195173 -1.891920 -7.348320 -12.690242 -5.158866 -5.949034 -14.258573 1.432525 24.035991 30.601979 -5.216373 0.000000 0.000000 0.000000 0.000000 0.000000 0.000000 -1.908347 1.139869 -7.778936 0.052156 -0.692131 -0.030375 4.773922 7.489401 -5.627548 0.000000 0.000000 0.000000 -2.387420 0.192790 -7.743508 0.664228 -0.463988 -0.170886 -8.017123 6.279059 18.951306 0.000000 0.000000 0.000000
-40.824382 84.628233 225.500597 0.950813 -0.122544 7.462749 -0.926851 0.244978 -7.459751 -0.000000 0.000000 0.000000 0.002400 -1.894754 -0.253200 0.000000 0.000000 0.000000 1.319410 -0.786219 0.407383 -1.406739 1.645865 -0.462469 3.099932 -5.484113 1.833533 -6.315448 1.397888 -1.064158 0.000000 0.000000 0.000000 0.000000 0.000000 0.000000 -3.998171 -4.679665 -1.810287 -7.444513 -14.522424 -6.079987 -7.107392 -14.312716 1.923190 29.815859 31.147313 -8.286620 0.000000 0.000000 0.000000 0.000000 0.000000 0.000000 -1.988342 1.357780 -7.353479 0.077107 -0.850849 -0.034116 2.849486 9.370350 -2.628941 0.000000 0.000000 0.000000 -2.469249 0.507062 -7.291795 0.766917 -0.653081 -0.195691 -13.322392 9.520351 30.787823 0.000000 0.000000 0.000000
-40.763793 84.633340 225.597484 1.004337 -0.218546 6.998620 -0.970241 0.339253 -6.993832 -0.000000 0.000000 0.000000 0.058929 -2.039494 -0.292225 0.000000 0.000000 0.000000 1.222517 -0.651328 0.360160 -1.218480 0.658851 -0.346205 3.577927 -3.097085 1.504608 -6.253484 -0.552201 -1.368398 0.000000 0.000000 0.000000 0.000000 0.000000 0.000000 -4.774955 -4.202134 -1.726335 -7.538255 -16.196665 -6.959027 -7.741111 -13.193492 2.736467 34.257459 32.013331 -10.821574 0.000000 0.000000 0.000000 0.000000 0.000000 0.000000 -2.069960 1.521159 -6.882882 0.089606 -0.958166 -0.036676 2.476883 8.027119 -2.057484 0.000000 0.000000 0.000000 -2.550535 0.784004 -6.797408 0.863532 -0.833825 -0.217949 -15.550184 6.436233 31.327409 0.000000 0.000000 0.000000
-40.714551 84.633615 225.668473 1.052394 -0.293195 6.544076 -1.012148 0.411170 -6.537751 -0.000000 0.000000 0.000000 0.198180 -2.185661 -0.359935 0.000000 0.000000 0.000000 1.139189 -0.519078 0.316232 -1.136354 0.525255 -0.305862 4.071589 -0.695371 1.051031 -4.895707 -2.574562 -1.655311 0.000000 0.000000 0.000000 0.000000 0.000000 0.000000 -5.328372 -3.827176 -1.650170 -7.723443 -17.516625 -7.685160 -7.776590 -11.665160 3.542823 37.963738 31.080129 -12.843351 0.000000 0.000000 0.000000 0.000000 0.000000 0.000000 -2.144332 1.628411 -6.422926 0.147941 -1.015046 -0.040181 2.412528 6.592187 -2.031119 0.000000 0.000000 0.000000 -2.610787 0.995167 -6.320444 0.933256 -0.863811 -0.225444 -15.852157 2.903529 27.898992 0.000000 0.000000 0.000000
-40.676832 84.632637 225.716678 1.096833 -0.338075 6.212330 -1.053840 0.454716 -6.204912 -0.000000 0.000000 0.000000 0.365077 -2.293092 -0.431760 0.000000 0.000000 0.000000 1.119705 -0.384588 0.283706 -1.117813 0.390054 -0.276142 4.261056 0.521816 0.798360 -4.446392 -3.963209 -1.744793 0.000000 0.000000 0.000000 0.000000 0.000000 0.000000 -5.488225 -3.874674 -1.682243 -7.984235 -18.047204 -7.996398 -6.882493 -9.788359 4.151306 37.948445 29.205702 -12.625322 0.000000 0.000000 0.000000 0.000000 0.000000 0.000000 -2.204234 1.696497 -6.088076 0.186367 -1.073027 -0.042981 2.311385 5.834121 -1.925742 0.000000 0.000000 0.000000 -2.667909 1.124664 -5.974272 1.675022 -0.497889 -0.201114 -16.969005 3.020230 29.119563 0.000000 0.000000 0.000000
